<svg xmlns="http://www.w3.org/2000/svg" width="28" height="31" viewBox="0 0 28 31">
    <g fill="#FFF" fill-rule="nonzero" opacity=".7">
        <path d="M17.248 15.742c-.302 0-.546.271-.546.606 0 .334.244.605.546.605.3 0 .545-.271.545-.605 0-.335-.244-.606-.545-.606z" opacity=".8"/>
        <path d="M5.576 22.39L.118 30.017a.66.66 0 0 0-.064.64c.091.21.282.342.492.342H27.4c.209 0 .4-.133.491-.342a.659.659 0 0 0-.064-.64L22.37 22.39a.528.528 0 0 0-.427-.229H17.16l4.082-7.102a10.412 10.412 0 0 0 1.464-5.37C22.706 4.346 18.788 0 13.973 0 9.157 0 5.24 4.346 5.24 9.688c0 1.92.506 3.778 1.463 5.37l4.082 7.102H6.004a.528.528 0 0 0-.428.23zM3.54 27.185h3.3l-1.863 2.603h-3.3l1.863-2.603zm7.942-3.815l1.496 2.604H9.1l1.863-2.604h.52zm4.983 0h.52l1.863 2.604h-3.879l1.496-2.604zm3.25 3.815l1.862 2.603H6.37l1.863-2.603h11.48zm3.255 2.603l-1.862-2.603h3.3l1.863 2.603h-3.3zm.572-3.814h-3.3l-1.863-2.604h3.3l1.863 2.604zM7.614 14.39a9.11 9.11 0 0 1-1.283-4.704c0-4.673 3.428-8.476 7.642-8.476 4.213 0 7.641 3.803 7.641 8.476 0 1.684-.444 3.31-1.283 4.704l-.006.01-6.352 11.053A415200.112 415200.112 0 0 0 7.614 14.39zm1.954 8.98l-1.863 2.604h-3.3l1.863-2.604h3.3z" opacity=".8"/>
        <path d="M13.973 15.742c2.996 0 5.458-2.692 5.458-6.055 0-3.338-2.449-6.054-5.458-6.054-3.01 0-5.458 2.716-5.458 6.054 0 3.364 2.462 6.055 5.458 6.055zm0-10.898c2.407 0 4.366 2.173 4.366 4.843 0 2.696-1.974 4.844-4.366 4.844-2.393 0-4.367-2.148-4.367-4.844 0-2.67 1.959-4.843 4.367-4.843zM16.272 17.808c-.258-.172-.594-.08-.75.206l-2.017 3.713c-.155.287-.072.659.186.831.26.174.594.08.75-.206l2.016-3.713c.156-.286.073-.658-.185-.83z" opacity=".8"/>
    </g>
</svg>
