<svg xmlns="http://www.w3.org/2000/svg" width="182" height="19" viewBox="0 0 182 19">
    <g fill="none" fill-rule="nonzero">
        <path fill="#30384C" d="M3.767 3.977v3.961l.976-.505c1.497-.759 3.01-1.062 5.332-1.062 2.59 0 3.734.286 6.19 1.534.067.033.118-1.72.118-3.911V.015h3.028v18.881h-3.028v-1.399c0-2.057-.27-4.046-.69-5.007-.454-1.062-1.716-2.225-2.809-2.613-1.127-.388-3.297-.506-4.609-.27-2.002.388-3.213 1.332-4.037 3.153-.32.708-.37 1.197-.437 3.473l-.068 2.663H.571V.016h3.196v3.96zM35.542.42c2.927.809 4.76 2.647 5.585 5.58.32 1.146.32 5.765 0 6.912-.841 3-2.826 4.905-5.904 5.664-1.363.354-5.181.303-6.544-.084-3.061-.843-4.928-2.782-5.652-5.867-.336-1.4-.336-4.94 0-6.339.724-3.068 2.658-5.09 5.568-5.832a33.347 33.347 0 0 1 1.497-.338c.942-.151 4.542.05 5.45.304zM53.49.504c.455.202 1.144.691 1.548 1.079l.707.691.723-.691C57.595.453 58.554.1 60.454.116c1.296 0 1.767.068 2.456.371 1.565.708 2.692 2.225 3.365 4.501.252.86.302 1.956.353 7.452l.067 6.456h-3.011l-.084-5.95c-.067-6.238-.168-7.148-.942-8.463-.976-1.686-3.431-1.686-4.407 0-.757 1.298-.875 2.242-.942 8.462l-.084 5.951h-2.96l-.085-6.035c-.084-6.305-.168-7.047-.908-8.345-.993-1.702-3.364-1.753-4.39-.084-.808 1.315-.909 2.192-.993 8.513l-.084 5.951H44.81v-5.715c0-6.406.151-7.923 1.026-9.794C46.644 1.65 47.839.605 49.47.184c1.01-.253 3.095-.084 4.02.32zM88.85 1.566l-.05 1.568-6.225.084c-6.66.101-7.132.152-8.393 1.062-.606.439-1.11 1.518-1.11 2.462 0 .623.033.708.302.606 1.935-.809 4.24-1.095 8.966-1.095h3.347V9.456H81.75c-4.39 0-6.039.202-7.267.927-2.153 1.264-1.631 3.978.96 4.889.807.286 1.597.337 7.131.421l6.224.084.05 1.568.051 1.585-6.274-.067c-5.736-.068-6.392-.102-7.57-.439-2.304-.64-3.65-1.584-4.474-3.135l-.454-.86V4.483l.454-.86C71.556 1.752 73.49.639 76.519.2c.555-.085 3.566-.152 6.695-.169l5.685-.017-.05 1.551zm26.53.052V3.22l-6.257.05c-6.022.051-6.308.068-7.216.439-.505.202-1.178.64-1.497.96-.505.523-.589.709-.64 1.686l-.067 1.113.64-.27c1.547-.607 2.977-.775 7.4-.876l4.391-.101.101.404c.135.523.151 2.225.017 2.58-.084.236-.589.27-3.92.27-4.306 0-5.584.15-6.913.808-1.262.624-1.733 1.35-1.648 2.53.067.724.185.994.639 1.466.32.32.992.758 1.497.96.908.372 1.194.388 7.216.439l6.258.05V18.949l-6.258-.084c-6.745-.084-7.401-.152-9.268-1.045-1.346-.64-2.07-1.332-2.675-2.58l-.555-1.129V9.474c0-4.467.017-4.67.387-5.462.774-1.702 1.85-2.613 3.852-3.287 1.632-.556 2.927-.64 8.932-.674l5.585-.017v1.584zm6.393-.37c.017 3.388 1.127 5.394 3.532 6.304 1.194.472 4.491.422 5.72-.067 2.237-.894 3.364-3.018 3.364-6.406V.034h3.027v1.82c0 3.102-.74 5.277-2.355 6.862l-.79.792.807.81c1.581 1.584 2.338 3.792 2.338 6.86v1.737H134.438l-.1-1.737c-.236-4.231-2.104-6.018-6.275-6.018-4.29 0-6.291 2.107-6.291 6.608v1.147h-3.028v-1.82c0-3.12.84-5.514 2.456-6.913l.69-.607-.825-.826c-1.564-1.567-2.153-3.236-2.27-6.406l-.102-2.31H121.771v1.214zM154.338.42c3.078.81 4.659 2.276 5.113 4.788.353 2.023-.252 4.012-1.615 5.277-1.766 1.635-3.515 2.023-9.52 2.14l-4.509.085v6.204h-3.027v-9.44h5.433c2.977 0 5.904-.085 6.51-.17 1.278-.202 2.809-.927 3.23-1.517.37-.505.554-1.5.403-2.09-.185-.725-1.076-1.585-2.086-1.99-.925-.37-1.16-.387-7.216-.438l-6.274-.05V0l6.274.084c5.013.05 6.46.118 7.284.337zm20.505-.134c3.616.64 5.92 2.95 6.56 6.608.706 3.911-.202 7.788-2.271 9.727-1.733 1.618-4.474 2.41-7.654 2.242-3.01-.185-4.642-.809-6.223-2.394-1.767-1.77-2.339-3.49-2.339-6.996 0-4.046 1.043-6.44 3.516-8.007 2.002-1.282 5.282-1.737 8.41-1.18z"/>
        <path fill="#FFF" d="M29.352 3.572c-1.38.439-2.49 1.517-3.045 2.95-.336.843-.403 1.298-.403 2.934 0 1.635.067 2.09.403 2.933.875 2.259 2.725 3.304 5.787 3.304 4.272 0 6.224-1.955 6.224-6.237 0-3.372-1.144-5.193-3.768-5.968-1.295-.388-3.835-.337-5.198.084zM169.998 3.405c-1.547.388-2.843 1.484-3.516 2.95-.336.742-.386 1.096-.386 3.12 0 2.005.05 2.376.386 3.135.488 1.079 1.548 2.124 2.641 2.63.74.337 1.094.387 3.112.387 2.019 0 2.372-.05 3.146-.404 2.035-.91 3.078-2.866 3.078-5.749 0-2.056-.454-3.49-1.446-4.551-1.144-1.214-2.086-1.568-4.441-1.619-1.06-.034-2.22.017-2.574.101z"/>
    </g>
</svg>
