<svg xmlns="http://www.w3.org/2000/svg" width="125" height="13" viewBox="0 0 125 13">
    <path fill="#FFF" fill-rule="nonzero" d="M2.55 12.929l.046-1.822c.046-1.558.08-1.892.299-2.377.563-1.245 1.39-1.891 2.757-2.156.897-.162 2.379-.081 3.149.184.746.265 1.608 1.061 1.918 1.788.288.657.472 2.018.472 3.426v.957h2.068V.01H11.19v2.935c-.004 1.398-.037 2.486-.08 2.464-1.678-.854-2.46-1.05-4.23-1.05-1.585 0-2.619.208-3.641.727l-.667.346V.01H.39V12.93h2.16zm17.04-.277c.93.265 3.539.3 4.47.058 2.102-.52 3.458-1.823 4.032-3.876.218-.784.218-3.945 0-4.729C27.53 2.098 26.277.841 24.277.287c-.62-.173-3.079-.311-3.722-.207-.184.034-.655.138-1.023.23-1.988.508-3.309 1.892-3.803 3.991-.23.958-.23 3.38 0 4.337.494 2.111 1.77 3.437 3.86 4.014zm2.332-1.915c-2.091 0-3.355-.715-3.952-2.26-.23-.577-.276-.888-.276-2.007 0-1.12.046-1.43.276-2.007.379-.98 1.137-1.719 2.08-2.019.93-.288 2.665-.323 3.55-.057 1.792.53 2.573 1.776 2.573 4.083 0 2.93-1.333 4.267-4.25 4.267zM36.537.345c.31.138.782.473 1.057.738l.483.473.494-.473C39.34.31 39.996.068 41.294.08c.885 0 1.206.046 1.678.253 1.068.485 1.838 1.523 2.298 3.08.172.588.206 1.338.24 5.098l.047 4.418H43.5l-.057-4.072c-.046-4.267-.115-4.89-.644-5.79-.666-1.153-2.344-1.153-3.01 0-.517.888-.598 1.534-.644 5.79l-.057 4.072h-2.022l-.058-4.13c-.057-4.313-.115-4.82-.62-5.709-.678-1.165-2.298-1.2-2.999-.058-.552.9-.62 1.5-.678 5.825l-.057 4.072h-2.046v-3.91c0-4.383.104-5.421.701-6.702.552-1.188 1.368-1.903 2.482-2.191.69-.173 2.114-.058 2.746.219zm24.152.727l-.035 1.072-4.25.058c-4.55.07-4.872.104-5.734.727-.414.3-.759 1.038-.759 1.684 0 .426.023.484.207.415 1.322-.554 2.896-.75 6.124-.75h2.287V6.47H55.84c-2.999 0-4.125.138-4.963.634-1.471.865-1.115 2.722.655 3.345.551.196 1.091.23 4.871.288l4.251.058.035 1.073.034 1.084-4.285-.046c-3.918-.046-4.366-.07-5.17-.3-1.575-.438-2.494-1.084-3.057-2.145l-.31-.589V3.067l.31-.588c.666-1.28 1.988-2.042 4.056-2.342.379-.057 2.436-.104 4.573-.115L60.723.01l-.034 1.062zm18.122.035v1.096l-4.274.035c-4.113.034-4.309.046-4.93.3-.344.138-.803.438-1.022.657-.344.358-.402.484-.436 1.153l-.046.762.436-.185c1.057-.415 2.034-.53 5.056-.6l2.999-.069.069.277c.092.358.103 1.523.011 1.765-.057.161-.402.184-2.677.184-2.941 0-3.815.104-4.722.554-.862.427-1.184.923-1.126 1.73.046.496.126.68.436 1.004.219.219.678.519 1.023.657.62.254.816.265 4.929.3l4.274.035V12.965l-4.274-.058c-4.607-.058-5.056-.104-6.33-.715-.92-.438-1.414-.911-1.828-1.765L66 9.654V6.482c0-3.056.011-3.195.264-3.737.529-1.165 1.264-1.788 2.631-2.249 1.115-.38 2-.438 6.102-.461L78.81.023v1.084zm4.366-.253c.012 2.318.77 3.69 2.413 4.313.816.323 3.068.289 3.907-.046 1.528-.611 2.298-2.064 2.298-4.383V.023h2.068V1.27c0 2.122-.506 3.61-1.609 4.694l-.54.542.552.554c1.08 1.084 1.597 2.595 1.597 4.695v1.188h-2.034l-.069-1.188c-.16-2.896-1.436-4.118-4.285-4.118-2.93 0-4.298 1.442-4.298 4.521v.785H81.11v-1.246c0-2.134.575-3.772 1.678-4.73l.47-.414-.562-.566c-1.069-1.072-1.47-2.214-1.551-4.383l-.07-1.58H83.178v.83zM98.23 12.942V8.697l3.08-.058c4.101-.08 5.296-.346 6.503-1.465.93-.865 1.344-2.226 1.103-3.61-.31-1.718-1.39-2.722-3.493-3.276-.563-.15-1.551-.196-4.975-.23L96.16 0v2.203l4.286.035c4.136.034 4.297.046 4.929.3.69.276 1.298.865 1.425 1.36.103.404-.023 1.085-.276 1.43-.287.405-1.333.9-2.206 1.039-.414.058-2.413.115-4.447.115h-3.711v6.46h2.068zm18.901-.035c2.172.115 4.044-.427 5.228-1.534 1.413-1.326 2.034-3.98 1.551-6.655-.437-2.503-2.01-4.084-4.481-4.522-2.137-.38-4.378-.07-5.745.807-1.689 1.073-2.401 2.711-2.401 5.48 0 2.399.39 3.575 1.597 4.786 1.08 1.084 2.194 1.511 4.251 1.638zm.749-2.215h-.464c-1.176-.004-1.418-.048-1.894-.265-.746-.346-1.47-1.061-1.803-1.8-.23-.518-.265-.772-.265-2.145V6.25c.005-1.181.048-1.424.265-1.902a3.633 3.633 0 0 1 2.4-2.018c.242-.058 1.035-.092 1.759-.07 1.608.035 2.252.278 3.033 1.108.678.727.988 1.707.988 3.114 0 1.973-.712 3.31-2.102 3.934-.529.242-.77.276-2.149.276z"/>
</svg>
