<svg xmlns="http://www.w3.org/2000/svg" width="81" height="81" viewBox="0 0 81 81">
    <g fill="none">
        <path fill="#44D515" d="M40.5 0C62.866 0 81 18.131 81 40.5 81 62.866 62.866 81 40.5 81 18.131 81 0 62.869 0 40.5S18.131 0 40.5 0z"/>
        <path fill="#FFF" d="M59.598 25.749l-26.266 26.1-10.93-10.741c-1.006-1.001-2.64-1.001-3.646 0-1.008 1-1.008 2.621 0 3.62l12.763 12.54c1.047.924 2.612 1.026 3.646 0l28.08-27.9c1.006-.998 1.006-2.62 0-3.62-1.008-.998-2.639-.998-3.647 0z"/>
    </g>
</svg>
