<svg xmlns="http://www.w3.org/2000/svg" width="72" height="72" viewBox="0 0 72 72">
    <path fill="#122947" d="M32.348 36.005L.385 4.037c-.243-.242-.38-.571-.38-.914 0-.343.137-.672.38-.915L2.213.38C2.456.137 2.785 0 3.128 0c.343 0 .672.137.914.38l31.963 31.962L67.942.385c.243-.243.572-.38.915-.38.343 0 .672.137.914.38L71.6 2.213c.243.243.38.572.38.915 0 .343-.137.672-.38.914L39.637 36.005l31.984 31.937c.242.243.379.572.379.915 0 .343-.137.672-.38.914L69.793 71.6c-.243.243-.572.38-.915.38-.343 0-.672-.137-.914-.38L36 39.637 4.037 71.621c-.242.242-.571.379-.914.379-.343 0-.672-.137-.915-.38L.38 69.793C.137 69.549 0 69.22 0 68.877c0-.343.137-.672.38-.914l31.968-31.958z"/>
</svg>
