<svg xmlns="http://www.w3.org/2000/svg" width="20" height="12" viewBox="0 0 20 12">
    <g fill="#FFF" fill-rule="nonzero">
        <path d="M6 6.269h1v1H6zM6 7.269h1v1H6zM6 9.269h1v1H6zM6 5.269h1v1H6zM6 3.269h1v1H6zM6 2.269h1v1H6zM6 1.269h1v1H6zM1 1.269h1v1H1zM18 1.269h1v1h-1zM18 9.269h1v1h-1zM1 9.269h1v1H1z"/>
        <path d="M19.667 4.152A.329.329 0 0 0 20 3.828V.593a.329.329 0 0 0-.333-.324H.333A.329.329 0 0 0 0 .593v3.235c0 .179.15.324.333.324.92 0 1.667.724 1.667 1.617 0 .894-.746 1.618-1.667 1.618A.329.329 0 0 0 0 7.71v3.236c0 .178.15.323.333.323h19.334a.329.329 0 0 0 .333-.323V7.71a.329.329 0 0 0-.333-.323c-.92 0-1.667-.724-1.667-1.618 0-.893.746-1.617 1.667-1.617zM17.355 6.09c.147.995.953 1.777 1.978 1.92v2.611H.667V8.011c1.275-.178 2.16-1.325 1.978-2.564-.147-.995-.953-1.777-1.978-1.92V.917h18.666v2.61c-1.275.178-2.16 1.326-1.978 2.564z"/>
        <path d="M9.5 2.27a1.5 1.5 0 1 0 0 3 1.5 1.5 0 0 0 0-3zm0 2.25a.75.75 0 1 1 0-1.5.75.75 0 0 1 0 1.5zM13.5 6.27a1.5 1.5 0 1 0 0 3 1.5 1.5 0 0 0 0-3zm0 2.25a.75.75 0 1 1 0-1.5.75.75 0 0 1 0 1.5zM8.958 7.972l5.25-5.25.465.463-5.251 5.251z"/>
    </g>
</svg>
