<svg xmlns="http://www.w3.org/2000/svg" width="24" height="19" viewBox="0 0 24 19">
    <path fill="#30384C" fill-rule="evenodd" d="M22.364 11.092H1.636C.732 11.092 0 10.347 0 9.43c0-.919.732-1.664 1.636-1.664h20.728c.903 0 1.636.745 1.636 1.664 0 .918-.733 1.663-1.636 1.663zm0-7.764H1.636C.732 3.328 0 2.582 0 1.664 0 .745.732 0 1.636 0h20.728C23.267 0 24 .745 24 1.664c0 .918-.733 1.664-1.636 1.664zM1.636 15.529h20.728c.903 0 1.636.746 1.636 1.664 0 .919-.733 1.664-1.636 1.664H1.636C.732 18.857 0 18.112 0 17.193c0-.918.732-1.664 1.636-1.664z"/>
</svg>
