<svg xmlns="http://www.w3.org/2000/svg" width="32" height="32" viewBox="0 0 32 32">
    <g fill="#19202C" fill-rule="nonzero" opacity=".8">
        <path d="M30.4 0H1.6A1.6 1.6 0 0 0 0 1.6v28.8A1.6 1.6 0 0 0 1.6 32h28.8a1.6 1.6 0 0 0 1.6-1.6V1.6A1.6 1.6 0 0 0 30.4 0zm.533 30.4a.533.533 0 0 1-.533.533H1.6a.533.533 0 0 1-.533-.533V5.333h29.866V30.4zM1.067 4.267V1.6c0-.295.238-.533.533-.533h28.8c.295 0 .533.238.533.533v2.667H1.067z"/>
        <path d="M2.288 2.288a.55.55 0 0 0-.155.379c.001.07.016.138.043.202a.498.498 0 0 0 .112.176.536.536 0 0 0 .757-.757.558.558 0 0 0-.757 0zM4.421 2.288a.561.561 0 0 0-.144.485.34.34 0 0 0 .032.096.404.404 0 0 0 .048.096.84.84 0 0 0 .064.08.54.54 0 0 0 .758 0l.064-.08a.404.404 0 0 0 .048-.096.34.34 0 0 0 .032-.096.533.533 0 0 0-.901-.485zM6.555 2.288a.536.536 0 1 0 .757 0 .558.558 0 0 0-.757 0zM29.867 6.4H2.133v7.467h27.734V6.4zM28.8 12.8H3.2V7.467h25.6V12.8zM11.733 14.933h-9.6v14.934h9.6V14.933zM10.667 28.8H3.2V16h7.467v12.8zM12.8 21.867h17.067v-6.934H12.8v6.934zM13.867 16H28.8v4.8H13.867V16zM12.8 29.867h17.067v-6.934H12.8v6.934zM13.867 24H28.8v4.8H13.867V24z"/>
    </g>
</svg>
