<svg xmlns="http://www.w3.org/2000/svg" width="36" height="36" viewBox="0 0 36 36">
    <g fill="none" fill-rule="evenodd">
        <path stroke="#31394D" d="M18 .5C8.335.5.5 8.335.5 18S8.335 35.5 18 35.5 35.5 27.665 35.5 18 27.665.5 18 .5z" opacity=".1"/>
        <rect width="27" height="27" x="4.5" y="4.5" stroke="#31394D" opacity=".25" rx="13.5"/>
        <path fill="#31394D" d="M13.23 16.894a.838.838 0 0 1 0-1.155.768.768 0 0 1 1.115 0L18 19.53l3.655-3.79a.768.768 0 0 1 1.114 0 .838.838 0 0 1 0 1.155l-4.212 4.367a.768.768 0 0 1-1.114 0l-4.212-4.367z" opacity=".4"/>
    </g>
</svg>
