<svg xmlns="http://www.w3.org/2000/svg" width="38" height="42" viewBox="0 0 38 42">
    <g fill="#19202C" fill-rule="nonzero" opacity=".7">
        <path d="M23.368 21.328c-.408 0-.74.368-.74.82 0 .453.332.82.74.82s.74-.367.74-.82c0-.452-.332-.82-.74-.82z" opacity=".8"/>
        <path d="M7.555 30.334L.16 40.67a.893.893 0 0 0-.086.866c.123.284.382.464.665.464h36.383c.284 0 .543-.18.666-.464a.893.893 0 0 0-.087-.866l-7.395-10.336a.715.715 0 0 0-.579-.31H23.25l5.53-9.623c1.297-2.157 1.982-4.673 1.982-7.276C30.762 5.888 25.455 0 18.931 0 12.407 0 7.099 5.888 7.099 13.125c0 2.603.686 5.119 1.983 7.276l5.53 9.622H8.134a.715.715 0 0 0-.579.31zm-2.76 6.498h4.47l-2.523 3.527H2.27l2.524-3.527zm10.76-5.168l2.027 3.527h-5.255l2.524-3.527h.704zm6.752 0h.704l2.523 3.527H20.28l2.028-3.527zm4.401 5.168l2.524 3.527H8.63l2.524-3.527h15.554zm4.412 3.527l-2.524-3.527h4.472l2.523 3.527H31.12zm.774-5.168h-4.472L24.9 31.664h4.471l2.524 3.527zM10.316 19.498c-1.137-1.889-1.738-4.092-1.738-6.373 0-6.332 4.644-11.484 10.353-11.484 5.708 0 10.353 5.152 10.353 11.484 0 2.28-.602 4.484-1.739 6.373l-.008.014-8.606 14.974-8.606-14.974-.009-.014zm2.647 12.166l-2.524 3.527H5.968l2.524-3.527h4.47z" opacity=".8"/>
        <path d="M18.93 21.328c4.06 0 7.396-3.647 7.396-8.203 0-4.523-3.318-8.203-7.395-8.203-4.078 0-7.395 3.68-7.395 8.203 0 4.558 3.336 8.203 7.395 8.203zm0-14.765c3.263 0 5.917 2.943 5.917 6.562 0 3.652-2.676 6.563-5.916 6.563-3.242 0-5.916-2.91-5.916-6.563 0-3.619 2.654-6.563 5.916-6.563zM22.046 24.127c-.35-.233-.805-.109-1.016.28l-2.733 5.03c-.21.388-.098.892.252 1.126.351.235.805.107 1.015-.28l2.733-5.03c.211-.388.098-.892-.251-1.126z" opacity=".8"/>
    </g>
</svg>
