<svg xmlns="http://www.w3.org/2000/svg" width="113" height="18" viewBox="0 0 113 18">
    <path fill="#FFF" fill-rule="nonzero" d="M2.379 13.195c.766 0 1.353.176 1.764.528.41.351.615.867.615 1.547 0 .671-.205 1.183-.615 1.535-.41.351-.998.527-1.764.527-.774 0-1.363-.174-1.77-.521C.203 16.463 0 15.949 0 15.27c0-.68.203-1.196.61-1.547.406-.352.995-.528 1.769-.528zM28.254.48c-.516.024-.887.086-1.113.188-.227.102-.381.287-.463.557-.082.27-.123.709-.123 1.318v11.906c0 .602.04 1.04.123 1.313.082.273.238.46.468.562.231.102.6.164 1.108.188v.48l-.95-.034c-.616-.017-1.34-.028-2.173-.033l-1.876-.002a80.245 80.245 0 0 0-3.52.07v-.481c.578-.024.997-.086 1.26-.188a.897.897 0 0 0 .538-.562c.098-.274.147-.711.147-1.313V2.156L15.89 16.97h-.386L8.742 1.559v10.734c0 1.18.047 2.027.14 2.543.095.516.305.896.634 1.143.328.246.879.423 1.652.533v.48l-.415-.025a46.934 46.934 0 0 0-2.28-.045c-.844 0-1.508.023-1.993.07v-.48c.5-.11.87-.282 1.108-.516.238-.234.398-.592.48-1.072.082-.48.123-1.197.123-2.15V2.542c0-.602-.043-1.04-.129-1.313-.085-.273-.244-.46-.474-.562-.23-.102-.6-.164-1.108-.188V0c.424.041.986.064 1.685.07L9.598.067C11.054.06 12.335.038 13.44 0l4.536 10.195L21.914.07 24.767.07A84.632 84.632 0 0 0 28.254 0v.48zm16.043 14.497c.203.515.43.896.68 1.142.25.246.496.377.738.393v.48l-.66-.023a124.988 124.988 0 0 0-3.711-.047l-1.36.005c-1.15.009-2.041.03-2.672.065v-.48c.602-.024 1.034-.098 1.295-.223.262-.125.393-.344.393-.656 0-.212-.075-.529-.224-.95l-1.499-4.124h-4.84l-.41 1.078c-.515 1.343-.773 2.386-.773 3.129 0 .656.182 1.105.545 1.347.363.242.904.375 1.623.399v.48l-.988-.034a72.025 72.025 0 0 0-2.153-.036l-.615.006c-.484.01-.896.03-1.236.064v-.48c.39-.063.763-.309 1.119-.739.355-.43.717-1.12 1.084-2.074L35.965 0c.344.031.765.047 1.265.047.5 0 .918-.016 1.254-.047l5.813 14.977zM34.934 4.078l-2.309 6h4.488l-2.18-6zm24.586 6.68a25.717 25.717 0 0 0-.07 1.874v.329c0 1.633.054 2.976.163 4.031l-.605-.021c-1.038-.03-2.527-.047-4.468-.049l-4.132.01c-1.945.01-3.51.03-4.693.06v-.48c.515-.024.889-.086 1.119-.188.23-.101.387-.289.469-.562.082-.274.123-.711.123-1.313V2.543c0-.602-.043-1.04-.13-1.313-.085-.273-.243-.46-.474-.562-.23-.102-.6-.164-1.107-.188V0l1.413.028c1.56.025 3.557.039 5.992.042h1.799C56.853.063 58.257.04 59.133 0c-.11 1.5-.164 2.844-.164 4.031 0 .742.023 1.32.07 1.735h-.55c-.282-1.86-.815-3.194-1.6-4.002C56.104.955 55.164.55 54.07.55h-.316c-.438 0-.754.035-.95.105a.65.65 0 0 0-.404.416c-.074.207-.11.537-.11.99v6.141h.245c.57 0 1.084-.16 1.541-.48.457-.32.834-.723 1.131-1.207.297-.485.496-.977.598-1.477h.55l-.04.673a31.015 31.015 0 0 0-.053 1.66l.015 1.4c.012.699.062 1.728.149 3.087h-.551a4.407 4.407 0 0 0-.604-1.623A3.38 3.38 0 0 0 54.117 9.1a3.048 3.048 0 0 0-1.582-.416h-.246v6.246c0 .46.037.793.111.996a.65.65 0 0 0 .405.41c.195.07.511.105.949.105h.797c.578 0 1.158-.183 1.74-.55.582-.368 1.113-.975 1.594-1.823.48-.847.842-1.95 1.084-3.31h.55zm19.03 5.273a4.072 4.072 0 0 1-1.581 1.008c-.578.195-1.25.293-2.016.293-1.101 0-1.959-.197-2.572-.592-.613-.394-.99-1.064-1.131-2.01l-.363-2.39c-.164-1.125-.383-1.975-.657-2.549-.273-.574-.69-.861-1.253-.861h-1.09v5.52c0 .6.043 1.038.129 1.312.086.273.244.46.474.562.23.102.6.164 1.108.188v.48l-.713-.029a87.46 87.46 0 0 0-2.158-.037l-1.137-.004c-1.938 0-3.363.023-4.278.07v-.48c.516-.024.89-.086 1.12-.188.23-.101.386-.289.468-.562.082-.274.123-.711.123-1.313V2.543c0-.602-.043-1.04-.128-1.313-.086-.273-.245-.46-.475-.562-.23-.102-.6-.164-1.108-.188V0l.42.019C62.63.053 63.87.07 65.45.07l.823-.003.895-.012 1.75-.029.388-.003c2.437 0 4.252.342 5.443 1.026 1.191.683 1.787 1.732 1.787 3.146 0 1.203-.45 2.229-1.347 3.076-.899.848-2.407 1.374-4.524 1.577 1.633.093 2.87.392 3.709.896.84.504 1.354 1.248 1.541 2.233l.504 2.496c.117.586.256.992.416 1.218.16.227.38.34.662.34.29 0 .535-.105.738-.316l.317.316zM68.544 8.45c.781 0 1.389-.172 1.822-.515.434-.344.73-.805.89-1.383.161-.578.241-1.274.241-2.086 0-1.313-.18-2.305-.539-2.977-.36-.672-.95-1.008-1.77-1.008-.367 0-.642.057-.826.17-.183.114-.308.315-.375.604-.066.289-.1.719-.1 1.289v5.906h.657zM86.906.48c-.515.024-.888.086-1.119.188-.23.102-.387.289-.469.562-.082.274-.123.711-.123 1.313v11.906c0 .602.043 1.04.13 1.313.085.273.243.46.474.562.23.102.6.164 1.107.188v.48l-.712-.029a87.46 87.46 0 0 0-2.158-.037l-1.138-.004c-1.937 0-3.363.023-4.277.07v-.48c.516-.024.889-.086 1.12-.188.23-.101.386-.289.468-.562.082-.274.123-.711.123-1.313V2.543c0-.602-.043-1.04-.129-1.313-.086-.273-.244-.46-.474-.562-.231-.102-.6-.164-1.108-.188V0l.61.025c.895.03 2.117.045 3.667.045l1.488-.006A65.135 65.135 0 0 0 86.906 0v.48zM88.242 0c1.164.055 2.258.082 3.281.082L92.38.07 96.234 0c3.32 0 5.803.707 7.448 2.121 1.644 1.414 2.466 3.477 2.466 6.188 0 1.742-.402 3.267-1.207 4.576-.804 1.308-1.966 2.32-3.486 3.035-1.41.664-3.073 1.02-4.986 1.067l-.446.005c-.191 0-.6-.008-1.226-.023l-1.696-.04a41.175 41.175 0 0 0-.675-.007l-1.398.005c-1.187.009-2.115.03-2.786.065v-.48c.516-.024.889-.086 1.12-.188.23-.101.386-.289.468-.562.082-.274.123-.711.123-1.313V2.543c0-.602-.043-1.04-.129-1.313-.086-.273-.244-.46-.474-.562-.23-.102-.6-.164-1.108-.188V0zm6.574 14.496c0 .578.047 1.01.141 1.295a.94.94 0 0 0 .522.598c.253.113.634.17 1.142.17 1.586 0 2.73-.684 3.434-2.051.703-1.367 1.054-3.403 1.054-6.106 0-2.71-.363-4.716-1.09-6.017-.726-1.301-1.867-1.951-3.421-1.951-.5 0-.875.056-1.125.17-.25.113-.422.314-.516.603-.094.29-.14.719-.14 1.29v12zm15.106-1.3c.766 0 1.353.175 1.764.527.41.351.615.867.615 1.547 0 .671-.205 1.183-.615 1.535-.41.351-.998.527-1.764.527-.774 0-1.363-.174-1.77-.521-.406-.348-.609-.862-.609-1.541 0-.68.203-1.196.61-1.547.406-.352.995-.528 1.769-.528z"/>
</svg>
