<svg xmlns="http://www.w3.org/2000/svg" width="24" height="28" viewBox="0 0 24 28">
    <path fill="#FFF" fill-rule="nonzero" d="M5.997 7.328V5.905c0-2.83 2.573-5.218 5.625-5.218s5.624 2.388 5.624 5.218v1.423h5.574c.182-.015.341.133.357.331v19.258c-.016.199-.175.346-.357.332H.628c-.183.014-.342-.133-.358-.332V7.66c.016-.198.175-.346.358-.331h5.369zm1.432 0h8.385V5.905c0-2.097-1.931-3.89-4.192-3.89s-4.193 1.793-4.193 3.89v1.423zM5.997 8.656H1.702v17.265h20.044V8.656h-4.5v2.324c-.016.198-.176.346-.358.331h-.716c-.182.015-.341-.133-.358-.331V8.656H7.43v2.324c-.016.198-.175.346-.358.331h-.716c-.182.015-.341-.133-.357-.331l-.001-2.324z"/>
</svg>
