<svg xmlns="http://www.w3.org/2000/svg" width="22" height="25" viewBox="0 0 22 25">
    <path fill="#30384C" fill-rule="nonzero" d="M5.5 6.25V4.91C5.5 2.247 7.971 0 10.902 0s5.402 2.247 5.402 4.91v1.34h5.353c.175-.014.328.125.343.312v18.125c-.015.187-.168.326-.343.312H.343c-.175.014-.328-.125-.343-.312V6.562c.015-.187.168-.326.343-.312H5.5zm1.375 0h8.054V4.91c0-1.973-1.855-3.66-4.027-3.66S6.875 2.937 6.875 4.91v1.34zM5.5 7.5H1.375v16.25h19.25V7.5h-4.322v2.187c-.015.186-.168.325-.343.312h-.688c-.175.013-.328-.126-.343-.312V7.5H6.875v2.187c-.015.186-.168.325-.343.312h-.688c-.175.013-.328-.126-.343-.312L5.5 7.5z"/>
</svg>
