<svg xmlns="http://www.w3.org/2000/svg" width="41" height="42" viewBox="0 0 41 42">
    <g fill="#19202C" fill-rule="nonzero" opacity=".7">
        <path d="M16.38 25.938a5.855 5.855 0 0 0 1.813-4.239v-3.208a3.95 3.95 0 0 0 .81-2.4v-3.355a.82.82 0 0 0-.82-.82h-6.761a4.981 4.981 0 0 0-4.975 4.975V21.7c0 1.665.697 3.17 1.814 4.24C3.688 26.1.017 29.87.017 34.482v6.697c0 .453.368.82.82.82h22.965a.82.82 0 0 0 .82-.82v-6.697c0-4.612-3.67-8.382-8.243-8.545zm-4.958-12.381h5.94v2.534a2.333 2.333 0 0 1-2.33 2.331H8.087v-1.53a3.338 3.338 0 0 1 3.335-3.335zm-3.335 8.142v-1.636h6.945c.538 0 1.052-.109 1.52-.304v1.94a4.238 4.238 0 0 1-4.232 4.233A4.237 4.237 0 0 1 8.087 21.7zm7.56 5.874l-3.207 5.435-3.207-5.435h6.414zm7.335 12.786h-1.846v-5.737a.82.82 0 1 0-1.641 0v5.737H5.385v-5.737a.82.82 0 1 0-1.64 0v5.737H1.658v-5.876c0-3.408 2.481-6.246 5.731-6.808l4.345 7.364a.82.82 0 0 0 1.413 0l4.321-7.324c3.143.647 5.514 3.436 5.514 6.768v5.876z" opacity=".8"/>
        <path d="M35.912 0h-4.639a.82.82 0 1 0 0 1.64h4.64a2.464 2.464 0 0 1 2.46 2.462v10.99a2.464 2.464 0 0 1-2.46 2.46h-2.991a.82.82 0 0 0-.58.24l-3.875 3.874v-3.293a.82.82 0 0 0-.82-.82h-6.993a.82.82 0 1 0 0 1.64h6.172v4.452a.82.82 0 0 0 1.4.58l5.035-5.032h2.651a4.106 4.106 0 0 0 4.102-4.102V4.101A4.106 4.106 0 0 0 35.912 0zM28.863.24a.827.827 0 0 0-.58-.24.827.827 0 0 0-.58.24.827.827 0 0 0-.24.58c0 .216.088.428.24.58.153.153.364.24.58.24a.827.827 0 0 0 .58-.24.827.827 0 0 0 .24-.58.827.827 0 0 0-.24-.58zM25.285 0h-4.63a4.106 4.106 0 0 0-4.102 4.102v4.55a.82.82 0 1 0 1.64 0v-4.55a2.464 2.464 0 0 1 2.461-2.461h4.631a.82.82 0 1 0 0-1.641zM17.567 35.034H16.42a.82.82 0 1 0 0 1.641h1.148a.82.82 0 1 0 0-1.64zM10.958 21.457a.825.825 0 0 0-.58-.24.827.827 0 0 0-.58.24.827.827 0 0 0-.24.58c0 .216.088.427.24.58.153.152.365.24.58.24a.823.823 0 0 0 .58-1.4zM14.842 21.457a.827.827 0 0 0-.58-.24.822.822 0 0 0 0 1.64.827.827 0 0 0 .58-.24.827.827 0 0 0 .24-.58.827.827 0 0 0-.24-.58z" opacity=".8"/>
        <path d="M31.312 7.341a3.043 3.043 0 0 0-2.815-2.815 3.01 3.01 0 0 0-2.285.809 3.047 3.047 0 0 0-.965 2.22.82.82 0 1 0 1.64 0c0-.391.158-.754.444-1.02a1.396 1.396 0 1 1 1.259 2.382 1.431 1.431 0 0 0-1.127 1.403v1.646a.82.82 0 1 0 1.64 0v-1.487a3.02 3.02 0 0 0 2.21-3.138zM28.863 14.096a.826.826 0 0 0-1.16 0 .828.828 0 0 0-.24.581c0 .216.088.427.24.58.153.153.364.24.58.24a.827.827 0 0 0 .58-.24.827.827 0 0 0 .24-.58.828.828 0 0 0-.24-.58z" opacity=".8"/>
    </g>
</svg>
