<svg xmlns="http://www.w3.org/2000/svg" width="23" height="21" viewBox="0 0 23 21">
    <path fill="#000" fill-rule="nonzero" d="M21.143 1.92a6.27 6.27 0 0 0-9.006.004l-.63.644-.639-.654A6.293 6.293 0 0 0 6.368 0a6.292 6.292 0 0 0-4.506 1.904A6.582 6.582 0 0 0 0 6.511a6.582 6.582 0 0 0 1.873 4.603l9.157 9.364a.647.647 0 0 0 .927.005l9.176-9.349c2.486-2.544 2.49-6.665.01-9.215zm-.936 8.262l-8.714 8.875L2.8 10.163A5.24 5.24 0 0 1 1.457 5.16c.465-1.794 1.834-3.194 3.588-3.669a4.973 4.973 0 0 1 4.893 1.373L11.04 3.99a.65.65 0 0 0 .932 0l1.092-1.117a4.975 4.975 0 0 1 7.146 0c1.974 2.018 1.974 5.29 0 7.308h-.003z"/>
</svg>
