<svg xmlns="http://www.w3.org/2000/svg" width="29" height="32" viewBox="0 0 29 32">
    <g fill="#FFF" fill-rule="nonzero" opacity=".7">
        <path d="M25.258 5.273V0H3.742v5.278C1.329 8.224 0 12.021 0 16c0 8.822 6.504 16 14.5 16S29 24.822 29 16c0-3.975-1.33-7.782-3.742-10.727zm-9.823 19.845l-.935 1.377-.935-1.377v-.496a2.973 2.973 0 0 0 1.87 0v.496zm-.935-2.924v1.032h1.389a2.18 2.18 0 0 1-1.389.516c-1.29 0-2.339-1.158-2.339-2.58v-2.605a4.79 4.79 0 0 0 2.339-.904 4.79 4.79 0 0 0 2.339.904v2.604c0 .368-.072.716-.199 1.033H14.5zm-3.274-1.549h-.468c-.258 0-.468-.232-.468-.516v-1.032c0-.285.21-.516.468-.516h.468v2.064zm1.87-8.554c-1.862.584-3.295 2.297-3.652 4.425H6.548v-9.29h6.549v4.865zm-1.87 5.457h-.468c-.165 0-.32.037-.468.095v-.095c0-2.56 1.889-4.645 4.21-4.645 2.321 0 4.21 2.084 4.21 4.645v.095a1.27 1.27 0 0 0-.468-.095h-.936a3.884 3.884 0 0 1-2.31-.772l-.496-.364-.495.364a3.884 3.884 0 0 1-2.311.772h-.468zm6.51 4.13h.506c0 .284-.21.516-.468.516h-.138c.045-.168.078-.34.1-.517zm.974-1.549c0 .284-.21.516-.468.516h-.468v-2.064h.468c.258 0 .468.232.468.516v1.032zm-4.21-8.258c-.158 0-.313.01-.468.026V6.194h-8.42v11.354h3.743v1.033H4.677V5.16h19.646v13.42h-4.678v-1.033c0-3.13-2.308-5.677-5.145-5.677zm9.823-10.839V4.13H4.677V1.032h19.646zM.935 16c0-3.323.99-6.512 2.807-9.118v12.73h5.613v.517c0 .854.63 1.548 1.403 1.548h.505c.132 1.01.64 1.885 1.366 2.445v.784l-3.01.997c-.998.33-1.667 1.323-1.667 2.472v.728C3.772 26.549.935 21.634.935 16zm10.759 14.644V27.87h-.936v2.513c-.644-.204-1.27-.46-1.87-.763v-1.246c0-.69.4-1.286 1-1.483l3.03-1.004 1.582 2.327 1.581-2.326 3.032 1.003c.598.197 1 .794 1 1.483v1.246c-.602.303-1.227.558-1.871.763v-2.513h-.936v2.773a12.357 12.357 0 0 1-5.612 0zm9.354-1.541v-.728c0-1.149-.67-2.142-1.666-2.472l-3.011-.997v-.784c.316-.244.591-.548.812-.896h.591c.774 0 1.403-.695 1.403-1.549v-.402c.285-.284.468-.69.468-1.146v-.516h5.613V6.886c1.816 2.606 2.807 5.797 2.807 9.114 0 5.634-2.837 10.55-7.017 13.103z" opacity=".8"/>
        <path d="M13.594 29h.906v1h-.906zM5.438 2h.906v1h-.907zM8.156 2h.906v1h-.906zM9.063 2h.906v1h-.906zM14.5 6h.906v1H14.5zM17.219 6h6.343v1H17.22zM14.5 9h9.063v1H14.5zM14.5 10h9.063v1H14.5zM20.844 12h2.718v1h-2.718zM20.844 15h2.718v1h-2.718zM20.844 16h2.718v1h-2.718z" opacity=".8"/>
    </g>
</svg>
