<svg xmlns="http://www.w3.org/2000/svg" width="41" height="42" viewBox="0 0 41 42">
    <g fill="#19202C" fill-rule="nonzero" opacity=".7">
        <path d="M35.71 6.921V0H5.29v6.927C1.88 10.793 0 15.777 0 21c0 11.579 9.196 21 20.5 21S41 32.579 41 21c0-5.217-1.88-10.214-5.29-14.079zM21.823 32.968L20.5 34.775l-1.323-1.807v-.652a4.5 4.5 0 0 0 2.646 0v.652zM20.5 29.129v1.355h1.964c-.551.42-1.227.677-1.964.677-1.823 0-3.306-1.52-3.306-3.387v-3.417a7.086 7.086 0 0 0 3.306-1.188 7.086 7.086 0 0 0 3.306 1.188v3.417c0 .482-.101.94-.28 1.355H20.5zm-4.629-2.032h-.661a.67.67 0 0 1-.662-.678v-1.354a.67.67 0 0 1 .662-.678h.661v2.71zm2.645-11.228c-2.634.767-4.66 3.015-5.164 5.808H9.258V9.484h9.258v6.385zm-2.645 7.163h-.661c-.233 0-.454.049-.662.125v-.125c0-3.361 2.67-6.097 5.952-6.097s5.952 2.736 5.952 6.097v.125a1.915 1.915 0 0 0-.662-.125h-1.322A5.776 5.776 0 0 1 21.2 22.02l-.7-.479-.7.479a5.776 5.776 0 0 1-3.268 1.013h-.661zm9.205 5.42h.714a.67.67 0 0 1-.661.677h-.195c.064-.22.11-.447.142-.677zm1.376-2.033a.67.67 0 0 1-.662.678h-.661v-2.71h.661a.67.67 0 0 1 .662.678v1.354zM20.5 15.581c-.223 0-.443.014-.661.034V8.129H7.935v14.903h5.29v1.355H6.614V6.774h27.774v17.613h-6.613v-1.355c0-4.108-3.263-7.451-7.274-7.451zM34.387 1.355v4.064H6.613V1.355h27.774zM1.323 21c0-4.361 1.397-8.546 3.967-11.967v16.709h7.936v.677c0 1.12.89 2.033 1.984 2.033h.714a4.76 4.76 0 0 0 1.93 3.208v1.03l-4.256 1.308c-1.409.433-2.356 1.736-2.356 3.244v.955C5.333 34.846 1.322 28.395 1.322 21zm15.21 19.22v-3.64H15.21v3.3a18.668 18.668 0 0 1-2.645-1.003v-1.635c0-.904.567-1.687 1.413-1.946l4.286-1.318 2.236 3.054 2.236-3.053 4.286 1.317c.846.259 1.413 1.042 1.413 1.946v1.635a18.83 18.83 0 0 1-2.645 1.002v-3.298h-1.322v3.639a18.758 18.758 0 0 1-7.936 0zm13.225-2.023v-.955c0-1.507-.947-2.81-2.356-3.244l-4.257-1.309v-1.03c.447-.32.836-.718 1.148-1.175h.836c1.094 0 1.984-.912 1.984-2.032v-.529c.403-.372.661-.906.661-1.504v-.677h7.936V9.038A19.905 19.905 0 0 1 39.677 21c0 7.395-4.01 13.846-9.919 17.197z" opacity=".8"/>
        <path d="M19 38.267h1v.933h-1zM8 2.8h1v.933H8zM12 2.8h1v.933h-1zM13 2.8h1v.933h-1zM21 8.4h1v.933h-1zM24 8.4h9v.933h-9zM20 12.133h13v.934H20zM20 13.067h13V14H20zM29 15.867h4v.933h-4zM29 19.6h4v.933h-4zM29 21.467h4v.933h-4z" opacity=".8"/>
    </g>
</svg>
