<svg xmlns="http://www.w3.org/2000/svg" width="45" height="35" viewBox="0 0 45 35">
    <g fill="#19202C" fill-rule="nonzero" opacity=".8">
        <path d="M.857 5.78v22.661c0 3.123 2.49 5.67 5.543 5.67h17.905c3.053 0 5.543-2.547 5.543-5.67v-3.67c0-.62-.49-1.123-1.098-1.123a1.11 1.11 0 0 0-1.098 1.123v3.67c0 1.89-1.508 3.433-3.356 3.433H6.4c-1.848 0-3.356-1.543-3.356-3.433V5.781c0-1.89 1.508-3.433 3.356-3.433h17.905c1.848 0 3.356 1.543 3.356 3.433v3.67c0 .62.491 1.123 1.098 1.123a1.11 1.11 0 0 0 1.098-1.123v-3.67c0-3.123-2.49-5.67-5.543-5.67H6.4C3.347.111.857 2.65.857 5.781z"/>
        <path d="M35.254 23.812c.22.2.503.3.796.3.293 0 .577-.1.797-.3l7.68-6.981a.95.95 0 0 0 0-1.44l-7.68-6.98c-.44-.4-1.145-.4-1.584 0a.95.95 0 0 0 0 1.44l5.767 5.24H19.983c-.622 0-1.126.458-1.126 1.024 0 .566.504 1.024 1.126 1.024h21.038l-5.767 5.241a.942.942 0 0 0 0 1.432z"/>
    </g>
</svg>
