<svg xmlns="http://www.w3.org/2000/svg" width="29" height="32" viewBox="0 0 29 32">
    <g fill="#FFF" fill-rule="nonzero" opacity=".7">
        <path d="M26.719 23.309c-.111-.341-.445-.516-.746-.39l-6.041 2.524c-.301.126-.455.504-.344.845.086.266.308.43.545.43a.52.52 0 0 0 .2-.04l6.042-2.525c.3-.125.455-.504.344-.844zM18.955 26.498c-.11-.333-.44-.502-.739-.38l-.253.104c-.298.123-.45.492-.34.824.085.259.305.419.54.419a.522.522 0 0 0 .198-.04l.253-.104c.298-.123.45-.491.34-.823zM26.625 20.641c-.11-.34-.441-.514-.74-.389l-4.74 1.993c-.299.125-.452.503-.341.844.086.265.306.43.54.43a.514.514 0 0 0 .2-.041l4.74-1.993c.299-.125.452-.503.341-.844zM26.625 17.975c-.11-.34-.441-.515-.74-.39l-4.74 1.993c-.299.126-.452.504-.341.844.086.265.306.43.54.43a.514.514 0 0 0 .2-.041l4.74-1.992c.299-.126.452-.504.341-.844z" opacity=".8"/>
        <path d="M28.622 5.953L14.7.093a.512.512 0 0 0-.4 0L.378 5.952a.558.558 0 0 0-.13.077.69.69 0 0 0-.248.54v18.856c0 .276.15.522.378.618l13.922 5.86a.514.514 0 0 0 .4 0l13.922-5.86c.227-.096.378-.342.378-.618V6.57c0-.276-.15-.523-.378-.618zm-14.7 24.387L1.155 24.966V7.516l2.6 1.095v7.985c0 .276.15.522.378.618l6.239 2.626a.514.514 0 0 0 .53-.077.69.69 0 0 0 .247-.541v-7.499l2.773 1.168v17.45zM9.994 11.237v7.04l-5.084-2.14v-7.04l5.084 2.14zm-3.993-3.09l4.57-1.925 4.57 1.924-4.57 1.924-4.57-1.924zm8.499 3.582l-2.266-.954 4.777-2.01c.227-.096.377-.343.377-.619 0-.276-.15-.523-.377-.618l-6.24-2.626a.512.512 0 0 0-.4 0L4.327 7.446l-2.08-.875L14.5 1.413l12.253 5.158L14.5 11.729zm13.345 13.237L15.078 30.34V12.89l12.767-5.373v17.45z" opacity=".8"/>
    </g>
</svg>
