<svg xmlns="http://www.w3.org/2000/svg" width="39" height="43" viewBox="0 0 39 43">
    <g fill="#19202C" fill-rule="nonzero" opacity=".7">
        <path d="M35.522 30.782c-.147-.448-.59-.677-.99-.512l-8.024 3.315c-.4.165-.604.661-.457 1.109.115.349.41.565.724.565a.699.699 0 0 0 .267-.054l8.024-3.314c.4-.165.604-.662.456-1.11zM25.21 34.97c-.145-.437-.584-.66-.98-.5l-.336.138c-.396.16-.598.645-.452 1.08.113.34.405.551.716.551a.7.7 0 0 0 .264-.052l.337-.137c.395-.16.597-.645.452-1.08zM35.399 27.28c-.147-.448-.587-.676-.984-.511l-6.295 2.616c-.397.165-.6.66-.454 1.108.114.348.407.564.719.564a.69.69 0 0 0 .265-.053l6.295-2.617c.397-.164.6-.66.454-1.108zM35.399 23.778c-.147-.447-.587-.675-.984-.51l-6.295 2.615c-.397.165-.6.661-.454 1.108.114.349.407.565.719.565a.69.69 0 0 0 .265-.054l6.295-2.616c.397-.165.6-.661.454-1.108z" opacity=".8"/>
        <path d="M38.05 7.992L19.56.297a.687.687 0 0 0-.531 0L.538 7.992v.001a.743.743 0 0 0-.174.101.902.902 0 0 0-.328.71v24.758c0 .362.2.686.501.812l18.491 7.694a.69.69 0 0 0 .531 0l18.492-7.694c.301-.126.501-.45.501-.812V8.804c0-.362-.2-.686-.501-.812zM18.528 40.015L1.57 32.959V10.046l3.453 1.437v10.484c0 .363.2.687.502.812l8.286 3.449a.69.69 0 0 0 .704-.102.902.902 0 0 0 .329-.71V15.57l3.683 1.532v22.913zm-5.218-25.084v9.243l-6.751-2.81v-9.243l6.751 2.81zm-5.302-4.058l6.07-2.526 6.07 2.526-6.07 2.526-6.07-2.526zm11.287 4.704l-3.01-1.253 6.345-2.64c.301-.125.501-.449.501-.811 0-.363-.2-.687-.501-.812l-8.287-3.449a.687.687 0 0 0-.53 0l-8.03 3.342-2.762-1.15 16.274-6.772L35.57 8.804l-16.275 6.773zm17.724 17.382L20.06 40.015V17.102l16.957-7.056v22.913z" opacity=".8"/>
    </g>
</svg>
