<svg xmlns="http://www.w3.org/2000/svg" width="42" height="42" viewBox="0 0 42 42">
    <g fill="#19202C" fill-rule="nonzero" opacity=".7">
        <path d="M21 42C9.402 42 0 32.598 0 21S9.402 0 21 0s21 9.402 21 21c-.013 11.592-9.408 20.987-21 21zm0-40.727C10.105 1.273 1.273 10.105 1.273 21S10.105 40.727 21 40.727 40.727 31.895 40.727 21C40.715 10.11 31.89 1.285 21 1.273z" opacity=".8"/>
        <path d="M20.501 42A20.94 20.94 0 0 1 8.27 38.068a.643.643 0 0 1 .149-1.126c5.31-1.972 6.168-3.574 6.168-6.642a2.23 2.23 0 0 0-.513-1.56 8.48 8.48 0 0 1-1.446-3.777c-.062-.326-.114-.352-.405-.493-.776-.376-1.49-.915-1.677-3.377a2.982 2.982 0 0 1 .75-2.195 67.053 67.053 0 0 1-.31-1.952c-.578-3.569-.604-7.939 4.4-9.97 4.355-1.774 7.841-.805 8.934.35a5.728 5.728 0 0 1 4.158 1.848c2.137 2.493 1.456 8.177 1.223 9.717.536.583.809 1.362.755 2.153-.187 2.51-.897 3.052-1.678 3.426-.292.141-.345.165-.405.493a8.484 8.484 0 0 1-1.445 3.777 2.222 2.222 0 0 0-.513 1.56c0 3.068.857 4.67 6.168 6.642a.642.642 0 0 1 .149 1.126A20.94 20.94 0 0 1 20.501 42zM10.02 37.696a19.711 19.711 0 0 0 20.965 0c-4.45-1.832-5.848-3.68-5.848-7.395a3.455 3.455 0 0 1 .734-2.286 7.301 7.301 0 0 0 1.244-3.284c.08-.64.507-1.184 1.108-1.414.398-.191.808-.385.953-2.313 0-.982-.44-1.25-.459-1.26a.686.686 0 0 1-.338-.69c.318-1.707.84-7.034-.872-9.034a4.476 4.476 0 0 0-3.364-1.388 1.063 1.063 0 0 1-.172-.02 1.024 1.024 0 0 1-.534-.337c-.348-.6-3.383-1.8-7.57-.103-4.14 1.68-4.149 5.284-3.612 8.586.177 1.23.37 2.293.372 2.298a.643.643 0 0 1-.363.699s-.434.268-.434 1.295c.143 1.878.555 2.077.952 2.268.601.23 1.028.773 1.109 1.414a7.29 7.29 0 0 0 1.243 3.284c.51.649.772 1.46.735 2.286 0 3.715-1.398 5.563-5.85 7.394z" opacity=".8"/>
    </g>
</svg>
