<svg xmlns="http://www.w3.org/2000/svg" width="32" height="32" viewBox="0 0 32 32">
    <g fill="#FFF" fill-rule="nonzero" opacity=".7">
        <path d="M16 32C7.163 32 0 24.837 0 16S7.163 0 16 0s16 7.163 16 16c-.01 8.832-7.168 15.99-16 16zM16 .97C7.699.97.97 7.699.97 16c0 8.301 6.729 15.03 15.03 15.03 8.301 0 15.03-6.729 15.03-15.03C31.021 7.703 24.297.979 16 .97z"/>
        <path d="M16 32a15.885 15.885 0 0 1-9.26-2.967.485.485 0 0 1 .113-.85c4.02-1.488 4.669-2.696 4.669-5.012a1.68 1.68 0 0 0-.388-1.177 6.387 6.387 0 0 1-1.095-2.85c-.046-.247-.086-.266-.306-.373-.588-.283-1.128-.69-1.27-2.548a2.246 2.246 0 0 1 .568-1.656c-.056-.32-.149-.873-.235-1.473C8.36 10.4 8.34 7.103 12.127 5.57c3.297-1.338 5.936-.607 6.763.265a4.342 4.342 0 0 1 3.147 1.394c1.618 1.881 1.103 6.17.926 7.333.406.44.613 1.027.572 1.624-.142 1.895-.68 2.303-1.27 2.585-.222.107-.262.125-.307.373a6.39 6.39 0 0 1-1.094 2.85c-.275.328-.414.75-.388 1.177 0 2.316.649 3.524 4.67 5.012a.485.485 0 0 1 .112.85A15.885 15.885 0 0 1 16 32zm-7.935-3.248a14.96 14.96 0 0 0 15.87 0c-3.369-1.382-4.427-2.777-4.427-5.58a2.602 2.602 0 0 1 .556-1.725 5.5 5.5 0 0 0 .942-2.479c.06-.483.383-.893.838-1.066.302-.145.612-.291.722-1.746 0-.74-.334-.942-.347-.95a.517.517 0 0 1-.256-.52c.24-1.29.636-5.309-.66-6.819a3.394 3.394 0 0 0-2.547-1.047.807.807 0 0 1-.13-.016.776.776 0 0 1-.404-.254c-.264-.452-2.561-1.357-5.731-.077-3.133 1.268-3.14 3.987-2.734 6.48.134.927.28 1.73.281 1.733a.485.485 0 0 1-.274.528s-.329.202-.329.977c.109 1.417.42 1.567.72 1.712.456.173.779.583.84 1.066.107.89.43 1.742.941 2.479.387.49.584 1.102.557 1.725 0 2.803-1.058 4.198-4.428 5.58z"/>
    </g>
</svg>
