<svg xmlns="http://www.w3.org/2000/svg" xmlns:xlink="http://www.w3.org/1999/xlink" width="18" height="18" viewBox="0 0 18 18">
    <defs>
        <path id="a" d="M262.697 19.134a5.347 5.347 0 0 0-7.563 0 5.347 5.347 0 0 0 0 7.563 5.347 5.347 0 0 0 7.563 0 5.347 5.347 0 0 0 0-7.563m5.562 13.125a1.072 1.072 0 0 1-1.514 0l-3.368-3.37c-2.933 2.193-7.091 1.986-9.755-.68a7.486 7.486 0 0 1 0-10.587 7.486 7.486 0 0 1 10.587 0c2.666 2.664 2.873 6.822.68 9.755l3.37 3.37a1.07 1.07 0 0 1 0 1.512"/>
    </defs>
    <use fill="#30384C" fill-rule="evenodd" transform="translate(-251 -15)" xlink:href="#a"/>
</svg>
