<svg xmlns="http://www.w3.org/2000/svg" xmlns:xlink="http://www.w3.org/1999/xlink" width="18" height="19" viewBox="0 0 18 19">
    <defs>
        <path id="a" d="M273.527 20.33a5.489 5.489 0 0 0-7.874 0c-2.175 2.22-2.175 5.816 0 8.035a5.489 5.489 0 0 0 7.874 0c2.175-2.219 2.175-5.816 0-8.035m5.791 13.945a1.1 1.1 0 0 1-1.575 0l-3.507-3.58c-3.054 2.33-7.384 2.11-10.158-.723-3.045-3.105-3.045-8.142 0-11.249a7.684 7.684 0 0 1 11.024 0c2.775 2.83 2.991 7.25.708 10.365l3.508 3.58a1.154 1.154 0 0 1 0 1.607"/>
    </defs>
    <use fill="#FFF" fill-rule="evenodd" transform="translate(-261.684 -16)" xlink:href="#a"/>
</svg>
