<svg xmlns="http://www.w3.org/2000/svg" width="24" height="32" viewBox="0 0 24 32">
    <g fill="#FFF" fill-rule="nonzero" opacity=".7">
        <path d="M17.904 21.195a.653.653 0 0 0-.653.653v2.908H1.315V4.721H17.25v3.005a.653.653 0 0 0 1.306 0V.653A.653.653 0 0 0 17.904 0H.662a.653.653 0 0 0-.654.653v30.694c0 .36.293.653.654.653h17.242c.36 0 .653-.292.653-.653v-9.5a.653.653 0 0 0-.653-.652zm-.653-19.889v2.109H1.315V1.306H17.25zM1.315 30.694v-4.632H17.25v4.632H1.315z"/>
        <ellipse cx="9.288" cy="28.332" rx="1" ry="1"/>
        <path d="M12.521 16.27a.653.653 0 0 0-.838-.388l-.42.155a3.2 3.2 0 0 0-.2-.282l.287-.344a.654.654 0 0 0-1.003-.837l-.286.344a3.152 3.152 0 0 0-.314-.145l.076-.44a.654.654 0 1 0-1.287-.222l-.076.44c-.116.004-.23.015-.344.032l-.154-.42a.653.653 0 1 0-1.226.452l.155.421a3.174 3.174 0 0 0-.282.2l-.344-.288a.653.653 0 1 0-.836 1.006l.343.286a3.124 3.124 0 0 0-.145.314l-.44-.076a.653.653 0 1 0-.222 1.289l.44.075c.004.116.015.231.031.345l-.419.154a.654.654 0 0 0 .451 1.227l.42-.155c.062.097.128.192.2.282l-.287.345a.654.654 0 0 0 1.004.836l.285-.344c.102.054.206.103.314.146l-.076.44a.653.653 0 1 0 1.287.222l.076-.44c.116-.005.23-.016.344-.033l.154.42a.653.653 0 1 0 1.226-.452l-.155-.421c.098-.061.192-.128.282-.2l.344.288a.653.653 0 1 0 .836-1.005l-.343-.286c.054-.102.103-.206.145-.314l.44.076a.653.653 0 1 0 .222-1.289l-.44-.076a3.118 3.118 0 0 0-.031-.344l.419-.155a.654.654 0 0 0 .387-.84zm-2.106 1.772a1.87 1.87 0 0 1-2.157 1.525 1.87 1.87 0 0 1 .635-3.684 1.87 1.87 0 0 1 1.522 2.16zM22.457 14.08h-.725a3.86 3.86 0 0 0-.186-.699l.628-.363a.653.653 0 1 0-.654-1.13l-.629.363a3.925 3.925 0 0 0-.509-.51l.364-.63a.653.653 0 1 0-1.132-.653l-.362.628a3.845 3.845 0 0 0-.695-.185v-.727a.653.653 0 0 0-1.306 0v.727c-.24.04-.473.103-.696.185l-.362-.628a.653.653 0 1 0-1.131.653l.363.63a3.92 3.92 0 0 0-.509.51l-.628-.363a.653.653 0 1 0-.654 1.13l.628.363a3.865 3.865 0 0 0-.186.698h-.725a.653.653 0 1 0 0 1.306h.725c.04.24.103.474.186.698l-.628.363a.653.653 0 1 0 .654 1.13l.628-.363c.154.185.324.356.51.51l-.364.63a.653.653 0 1 0 1.131.653l.362-.628c.223.083.456.145.696.186v.726a.653.653 0 0 0 1.306 0v-.726c.24-.041.472-.103.695-.186l.362.628a.653.653 0 1 0 1.132-.653l-.364-.63a3.92 3.92 0 0 0 .51-.51l.628.364a.653.653 0 1 0 .654-1.131l-.628-.363c.083-.224.145-.457.186-.698h.725a.653.653 0 0 0 0-1.306zm-1.975.652a2.583 2.583 0 0 1-2.578 2.582 2.583 2.583 0 0 1 0-5.163 2.583 2.583 0 0 1 2.578 2.581z"/>
    </g>
</svg>
