<svg xmlns="http://www.w3.org/2000/svg" width="31" height="42" viewBox="0 0 31 42">
    <g fill="#19202C" fill-rule="nonzero" opacity=".8">
        <path d="M23.499 27.818a.857.857 0 0 0-.857.857v3.817H1.725V6.196h20.917v3.944a.857.857 0 0 0 1.714 0V.857A.857.857 0 0 0 23.5 0H.869A.857.857 0 0 0 .01.857v40.286c0 .473.384.857.857.857H23.5a.857.857 0 0 0 .857-.857V28.675a.857.857 0 0 0-.857-.857zm-.857-26.104v2.768H1.725V1.714h20.917zM1.725 40.286v-6.08h20.917v6.08H1.725z"/>
        <ellipse cx="12.19" cy="37.186" rx="1.296" ry="1.297"/>
        <path d="M16.434 21.354a.856.856 0 0 0-1.1-.509l-.552.204a4.2 4.2 0 0 0-.261-.37l.376-.452a.857.857 0 1 0-1.317-1.098l-.375.45a4.137 4.137 0 0 0-.412-.19l.1-.578a.858.858 0 1 0-1.69-.29l-.1.577c-.151.005-.302.02-.45.042l-.203-.55a.857.857 0 1 0-1.61.593l.204.552c-.128.08-.251.168-.37.261l-.452-.376a.859.859 0 0 0-1.097 1.32l.45.374a4.1 4.1 0 0 0-.19.413l-.577-.1a.858.858 0 1 0-.292 1.691l.577.1c.006.152.02.303.042.452l-.55.203a.859.859 0 0 0 .592 1.61l.552-.203c.08.127.167.251.261.37l-.376.452A.857.857 0 1 0 8.93 27.4l.375-.451c.133.07.27.134.412.19l-.1.578a.858.858 0 1 0 1.69.291l.099-.577c.152-.006.303-.02.452-.042l.202.55a.857.857 0 1 0 1.609-.593l-.203-.553c.128-.08.251-.167.37-.26l.451.376a.859.859 0 0 0 1.097-1.32l-.45-.375c.07-.133.135-.27.19-.412l.578.1a.858.858 0 1 0 .292-1.691l-.578-.1a4.093 4.093 0 0 0-.041-.452l.55-.203a.859.859 0 0 0 .508-1.102zM13.67 23.68a2.454 2.454 0 0 1-2.831 2 2.455 2.455 0 0 1-1.998-2.833 2.455 2.455 0 0 1 2.831-2.001 2.454 2.454 0 0 1 1.998 2.833zM29.475 18.479h-.952a5.065 5.065 0 0 0-.244-.916l.824-.476a.857.857 0 1 0-.858-1.484l-.825.476a5.151 5.151 0 0 0-.668-.668l.477-.828a.857.857 0 1 0-1.485-.856l-.475.824a5.047 5.047 0 0 0-.913-.244v-.954a.857.857 0 0 0-1.714 0v.954c-.315.054-.62.135-.913.244l-.475-.824a.857.857 0 1 0-1.485.856l.477.828a5.146 5.146 0 0 0-.668.668l-.825-.476a.857.857 0 1 0-.858 1.484l.824.476c-.109.294-.19.6-.244.916h-.952a.857.857 0 1 0 0 1.714h.952c.053.316.135.622.244.916l-.824.476a.857.857 0 1 0 .858 1.484l.825-.477c.201.243.425.467.668.67l-.477.827a.857.857 0 1 0 1.485.856l.475-.824c.293.108.598.19.913.244v.954a.857.857 0 0 0 1.714 0v-.954c.315-.054.62-.135.913-.244l.475.824a.857.857 0 1 0 1.485-.856l-.477-.828c.243-.202.466-.426.668-.669l.825.477a.857.857 0 1 0 .858-1.484l-.824-.476c.109-.294.19-.6.244-.916h.952a.857.857 0 1 0 0-1.714zm-2.593.857a3.39 3.39 0 0 1-3.383 3.388 3.39 3.39 0 0 1-3.383-3.388 3.39 3.39 0 0 1 3.383-3.388 3.39 3.39 0 0 1 3.383 3.388z"/>
    </g>
</svg>
