<svg xmlns="http://www.w3.org/2000/svg" width="16" height="14" viewBox="0 0 16 14">
    <path fill="#FFF" fill-rule="evenodd" d="M15.92 2.054c-.582.26-1.21.436-1.867.516A3.278 3.278 0 0 0 15.482.76a6.467 6.467 0 0 1-2.064.793A3.234 3.234 0 0 0 11.046.52c-1.794 0-3.25 1.465-3.25 3.272 0 .257.03.506.085.746a9.204 9.204 0 0 1-6.698-3.419 3.266 3.266 0 0 0-.44 1.645c0 1.135.575 2.137 1.446 2.723a3.206 3.206 0 0 1-1.472-.41v.042a3.267 3.267 0 0 0 2.607 3.208 3.223 3.223 0 0 1-1.468.056 3.258 3.258 0 0 0 3.036 2.272A6.5 6.5 0 0 1 .08 12.01a9.15 9.15 0 0 0 4.982 1.47c5.977 0 9.246-4.985 9.246-9.309 0-.142-.004-.282-.01-.423a6.63 6.63 0 0 0 1.622-1.693v-.001z"/>
</svg>
