<svg xmlns="http://www.w3.org/2000/svg" width="20" height="20" viewBox="0 0 20 20">
    <path fill="#FFF" fill-rule="nonzero" d="M13.783.64H6.217A5.583 5.583 0 0 0 .64 6.217v7.566a5.583 5.583 0 0 0 5.577 5.577h7.566a5.583 5.583 0 0 0 5.577-5.577V6.217A5.583 5.583 0 0 0 13.783.64zm0 1.883a3.694 3.694 0 0 1 3.694 3.694v7.566a3.694 3.694 0 0 1-3.694 3.694H6.217a3.694 3.694 0 0 1-3.694-3.694V6.217a3.694 3.694 0 0 1 3.694-3.694h7.566zM10 5.158A4.847 4.847 0 0 0 5.158 10 4.847 4.847 0 0 0 10 14.842 4.847 4.847 0 0 0 14.842 10 4.847 4.847 0 0 0 10 5.158zm0 1.884a2.958 2.958 0 1 1 0 5.916 2.958 2.958 0 0 1 0-5.916zm4.851-3.007a1.16 1.16 0 1 0 0 2.32 1.16 1.16 0 0 0 0-2.32z"/>
</svg>
