<svg xmlns="http://www.w3.org/2000/svg" width="29" height="42" viewBox="0 0 29 42">
    <path fill="#19202C" fill-rule="nonzero" d="M3.766 0c-.97 0-1.904.463-2.56 1.272C.562 2.068.244 3.133.33 4.2H.314v34.27c0 1.947 1.42 3.53 3.165 3.53H28.56V0H3.766zM1.57 38.47V7c.525.44 1.177.701 1.883.701v32.897c-1.04-.016-1.883-.962-1.883-2.126zm25.737 2.13H4.708V7.7H6.59v17.64c0 .478.277.884.69 1.012.086.025.171.039.256.039.01 0 .018-.004.028-.004.028-.001.055-.009.083-.012a.824.824 0 0 0 .44-.197c.022-.019.045-.035.066-.056.07-.07.133-.148.183-.242l2.647-4.92 2.648 4.92c.205.382.589.561.972.481.029-.005.056-.001.085-.01.412-.128.69-.534.69-1.01V7.7h11.926v32.9zM14.212 6.638l-.002.005-.086.192v.03l-.063.16.063.107v16.941l-3.139-5.833-3.139 5.833V7.165L8.862 4.9h6.13l-.78 1.738zm1.555-.338l1.255-2.8H8.086L6.831 6.3H3.899c-1.189 0-2.207-.965-2.318-2.198a2.605 2.605 0 0 1 .557-1.89c.417-.517 1.011-.812 1.628-.812h23.54v.7h-3.139c-.347 0-.628.313-.628.7 0 .387.281.7.628.7h3.139v.7h-2.511c-.347 0-.628.313-.628.7 0 .387.28.7.628.7h2.51v.7H15.768z" opacity=".8"/>
</svg>
