<?xml version="1.0" encoding="UTF-8"?>
<svg width="22px" height="32px" viewBox="0 0 22 32" version="1.1" xmlns="http://www.w3.org/2000/svg" xmlns:xlink="http://www.w3.org/1999/xlink">
    <!-- Generator: sketchtool 60.1 (101010) - https://sketch.com -->
    <title>EB2D7B3C-7420-426D-8BB2-96A2F8E620A9</title>
    <desc>Created with sketchtool.</desc>
    <g id="Page-1" stroke="none" stroke-width="1" fill="none" fill-rule="evenodd" opacity="0.7">
        <g id="Profile" transform="translate(-46.000000, -431.000000)" fill="#FFFFFF" fill-rule="nonzero">
            <g id="Group-8" transform="translate(19.000000, 20.000000)">
                <g id="Sidebar" transform="translate(0.000000, 256.000000)">
                    <g id="Wishlist" transform="translate(0.000000, 155.000000)">
                        <g id="agenda" transform="translate(27.000000, 0.000000)">
                            <path d="M2.86956522,0 C2.12969565,0 1.419,0.353066667 0.919217391,0.969066667 C0.428043478,1.57546667 0.186043478,2.3872 0.251086957,3.2 L0.239130435,3.2 L0.239130435,29.3109333 C0.239130435,30.7936 1.32095652,32 2.65052174,32 L21.7608696,32 L21.7608696,5.86666667 L21.7608696,4.8 L21.7608696,0 L2.86956522,0 Z M1.19565217,29.3109333 L1.19565217,5.33226667 C1.59547826,5.66773333 2.0923913,5.86666667 2.63043478,5.86666667 L2.63043478,30.9312 C1.83747826,30.9189333 1.19565217,30.1978667 1.19565217,29.3109333 Z M20.8043478,30.9333333 L3.58695652,30.9333333 L3.58695652,5.86666667 L5.02173913,5.86666667 L5.02173913,19.3072 C5.02173913,19.6709333 5.23265217,19.9802667 5.54734783,20.0773333 C5.61286957,20.0970667 5.67791304,20.1072 5.74247826,20.1072 C5.74965217,20.1072 5.75634783,20.1045333 5.76352174,20.104 C5.78504348,20.1034667 5.8056087,20.0976 5.82713043,20.0949333 C5.8763913,20.0885333 5.92373913,20.0773333 5.97013043,20.0597333 C5.99308696,20.0512 6.0146087,20.0410667 6.03613043,20.0298667 C6.08108696,20.0069333 6.12221739,19.9781333 6.16191304,19.9450667 C6.17913043,19.9306667 6.19682609,19.9184 6.2126087,19.9024 C6.26569565,19.8496 6.314,19.7898667 6.35226087,19.7178667 L8.36908696,15.9696 L10.385913,19.7184 C10.5423043,20.0090667 10.835,20.1456 11.1272174,20.0848 C11.1487391,20.0805333 11.1697826,20.0837333 11.1913043,20.0773333 C11.5055217,19.9797333 11.716913,19.6704 11.716913,19.3072 L11.716913,5.86666667 L20.8038696,5.86666667 L20.8038696,30.9333333 L20.8043478,30.9333333 Z M10.8278261,5.0576 L10.8263913,5.06133333 L10.7608696,5.20746667 L10.7608696,5.22986667 L10.7130435,5.35253333 L10.7608696,5.4336 L10.7608696,5.49333333 L10.7608696,18.3413333 L8.36956522,13.8970667 L5.97826087,18.3413333 L5.97826087,5.4592 L6.75208696,3.73333333 L11.4218261,3.73333333 L10.8278261,5.0576 Z M12.0129565,4.8 L12.9694783,2.66666667 L6.16095652,2.66666667 L5.20443478,4.8 L2.97095652,4.8 C2.06513043,4.8 1.2893913,4.06453333 1.20473913,3.12533333 C1.15643478,2.59306667 1.30708696,2.0816 1.62895652,1.6848 C1.947,1.29173333 2.39943478,1.06666667 2.86956522,1.06666667 L20.8043478,1.06666667 L20.8043478,1.6 L18.4130435,1.6 C18.1485652,1.6 17.9347826,1.8384 17.9347826,2.13333333 C17.9347826,2.42826667 18.1485652,2.66666667 18.4130435,2.66666667 L20.8043478,2.66666667 L20.8043478,3.2 L18.8913043,3.2 C18.6268261,3.2 18.4130435,3.4384 18.4130435,3.73333333 C18.4130435,4.02826667 18.6268261,4.26666667 18.8913043,4.26666667 L20.8043478,4.26666667 L20.8043478,4.8 L12.0129565,4.8 Z" id="Shape" opacity="0.8"></path>
                        </g>
                    </g>
                </g>
            </g>
        </g>
    </g>
</svg>